<?xml version="1.0" encoding="utf-8"?>
<!-- Generator: Adobe Illustrator 16.0.3, SVG Export Plug-In . SVG Version: 6.00 Build 0)  -->
<svg version="1.2" baseProfile="tiny" id="Layer_1" xmlns="http://www.w3.org/2000/svg" xmlns:xlink="http://www.w3.org/1999/xlink"
	 x="0px" y="0px" width="98px" height="11px" viewBox="0 0 98 11" xml:space="preserve">
<path fill="#2D3E5B" d="M97,1v9H22V1H97 M98,0H21v11h77V0L98,0z"/>
<text transform="matrix(1 0 0 1 26.25 7.6133)" fill="#4F8893" font-family="'Idlewild-Book'" font-size="6.7801">c</text>
<text transform="matrix(1 0 0 1 34.0947 7.6133)" fill="#4F8893" font-family="'Idlewild-Book'" font-size="6.7801">o</text>
<text transform="matrix(1 0 0 1 42.8066 7.6133)" fill="#4F8893" font-family="'Idlewild-Book'" font-size="6.7801">m</text>
<text transform="matrix(1 0 0 1 53.5127 7.6133)" fill="#4F8893" font-family="'Idlewild-Book'" font-size="6.7801">p</text>
<text transform="matrix(1 0 0 1 61.3301 7.6133)" fill="#4F8893" font-family="'Idlewild-Book'" font-size="6.7801">l</text>
<text transform="matrix(1 0 0 1 68.5166 7.6133)" fill="#4F8893" font-family="'Idlewild-Book'" font-size="6.7801">e</text>
<text transform="matrix(1 0 0 1 76.2939 7.6133)" fill="#4F8893" font-family="'Idlewild-Book'" font-size="6.7801">t</text>
<text transform="matrix(1 0 0 1 84.1377 7.6133)" fill="#4F8893" font-family="'Idlewild-Book'" font-size="6.7801">e</text>
<line fill="none" stroke="#2D3E5B" stroke-miterlimit="10" x1="21.75" y1="5.5" x2="0" y2="5.5"/>
</svg>
